Format                                   : Matroska
Format version                           : Version 2
File size                                : 697 MiB
Duration                                 : 2h 16mn
Overall bit rate                         : 715 Kbps
Movie name                               : Kyaa Super Kool Hain Hum [2012]-1CD-DVDRip By K@rtik [EXD Exclusive]
Codec ID                                 : V_MPEG4/ISO/AVC
Duration                                 : 2h 16mn
Bit rate                                 : 586 Kbps
Width                                    : 688 pixels
Height                                   : 288 pixels
Display aspect ratio                     : 2.40:1
Frame rate                               : 23.976 fps
Color space                              : YUV
Bits/(Pixel*Frame)                       : 0.123
Stream size                              : 558 MiB (80%)
Title                                    : K@rtik
Codec ID                                 : A_AC3
Duration                                 : 2h 16mn
Bit rate mode                            : Constant
Bit rate                                 : 128 Kbps
Channel(s)                               : 2 channels
Channel positions                        : Front: L R
Sampling rate                            : 48.0 KHz
Stream size                              : 125 MiB (18%)
Title                                    : K@rtik
Language                                 : Hindi 
http://img210.imageshack.us/img210/5512/exdp.jpg 
http://img802.imageshack.us/img802/1875/kyasuerkoolhainham001.jpg 
http://img839.imageshack.us/img839/1593/22655253.png 
http://img823.imageshack.us/img823/1854/18598680.png 
http://img823.imageshack.us/img823/9082/69250847.png 
http://img171.imageshack.us/img171/5220/32122914.png 
http://img145.imageshack.us/img145/7050/76521208.png 
http://img441.imageshack.us/img441/9338/51309972.png 
http://img7.imageshack.us/img7/9316/98427516.png 
http://img829.imageshack.us/img829/4845/70459871.png 
http://img204.imageshack.us/img204/8094/81994153.png 
http://img341.imageshack.us/img341/8673/49031796.png 
http://img684.imageshack.us/img684/9179/71436143.png 
http://img94.imageshack.us/img94/2505/83085849.png
